<svg id="Layer_1" data-name="Layer 1" xmlns="http://www.w3.org/2000/svg" xmlns:xlink="http://www.w3.org/1999/xlink" viewBox="0 0 40 40"><defs><style>.cls-1,.cls-2{fill:none;}.cls-2{stroke:#000;stroke-miterlimit:10;stroke-width:0.75px;}.cls-3{clip-path:url(#clip-path);}</style><clipPath id="clip-path"><path class="cls-1" d="M8.9,30.5c-.2,0,.2-3.7,0-3.6s.9-3.5.9-4.4,1.4-2.7-.3-2.9a1.5,1.5,0,0,0,.7-1.5c0-.6,5.1-3.2,9.5-3s9.1,3.4,8.4,3.4A2.2,2.2,0,0,0,26,20.7a2.2,2.2,0,0,0,1.4,2,3.5,3.5,0,0,0-1.9,3.1,3.4,3.4,0,0,0,3.4,3.4,3.3,3.3,0,0,0,1.7-.4,1.8,1.8,0,0,0-.3,1.1c0,1,1.8,1.8,1.8,1.8s-1.8,6.1-6.3,8.5-11.1,1.3-11.1.8S9.9,30.5,8.9,30.5Z"/></clipPath></defs><title>cookie icon</title><path class="cls-2" d="M26.6,17.7l1.2.7S26,19.7,26,20.7a2.2,2.2,0,0,0,1.4,2,3.5,3.5,0,0,0-1.9,3.1,3.5,3.5,0,0,0,3.4,3.6,2.7,2.7,0,0,0,1.6-.4,1.6,1.6,0,0,0-.2,1c0,.8,1.2,1.6,1.2,1.6L31,32.7"/><g class="cls-3"><path class="cls-2" d="M27.5,20.8l-.8-.3h-.1a28.4,28.4,0,0,0-5.2,2.8h-.1l1.8.6a22.5,22.5,0,0,1,3.4,2,28,28,0,0,1,4.7-2.7A11.5,11.5,0,0,0,29,19.8l-2.3.7Z"/><path class="cls-2" d="M27.1,26.4l-.6-.4-.8.6a23.4,23.4,0,0,0-3.3,2.9h-.1l.5.3a22.4,22.4,0,0,1,3.3,2.6l.5.5a13.2,13.2,0,0,1,4-3.4l1.4-.7a9.7,9.7,0,0,0,.1-1.7,9.6,9.6,0,0,0-.9-3.9A28,28,0,0,0,26.5,26Z"/><path class="cls-2" d="M15.6,22.1a22.3,22.3,0,0,1,4.9-3.5h.1a19,19,0,0,0-4.5-.3A10.5,10.5,0,0,0,12.9,22Z"/><path class="cls-2" d="M26.1,32.5a22.4,22.4,0,0,0-3.3-2.6l-.5-.3A20.9,20.9,0,0,0,19.1,34h0l1.6,1.2a19.5,19.5,0,0,1,2.8,2.5A18.1,18.1,0,0,1,26.6,33h0Z"/><path class="cls-2" d="M20.6,18.6a20,20,0,0,1,4-1.5,12.9,12.9,0,0,0-3.9-.3,9,9,0,0,0-4.6,1.5A19,19,0,0,1,20.6,18.6Z"/><path class="cls-2" d="M21.3,23.4l-.6-.3a28.5,28.5,0,0,0-4.2-.9h-1A19.8,19.8,0,0,0,12,26.4a13.9,13.9,0,0,1,4.2.6l.9.2A25.1,25.1,0,0,1,21.3,23.4Z"/><path class="cls-2" d="M20.7,23.1l.6.3h.1a28.4,28.4,0,0,1,5.2-2.8h.1l-2.4-.9c-.8-.2-2-.7-3.2-.9h-.6a22.3,22.3,0,0,0-4.9,3.5h.9A28.5,28.5,0,0,1,20.7,23.1Z"/><path class="cls-2" d="M22.3,29.6a24.6,24.6,0,0,0-3.7-1.8l-1.5-.6h0a24.6,24.6,0,0,0-2.9,4.6l1,.3A27.2,27.2,0,0,1,18,33.4l1.1.6h0A20.9,20.9,0,0,1,22.3,29.6Z"/><path class="cls-2" d="M22.3,29.6h.1a23.4,23.4,0,0,1,3.3-2.9l.8-.6a22.5,22.5,0,0,0-3.4-2l-1.8-.6a25.1,25.1,0,0,0-4.2,3.8l1.5.6A24.6,24.6,0,0,1,22.3,29.6Z"/><path class="cls-2" d="M21.1,18.7c1.2.2,2.4.7,3.2.9l2.4.9,2.3-.7c-.4-.4-.6-1.1-1-1.4a8.7,8.7,0,0,0-3.5-1.3,21.8,21.8,0,0,0-3.9,1.5Z"/><path class="cls-2" d="M26.6,33a18.1,18.1,0,0,0-3.1,4.7l.4.4A10,10,0,0,0,28.7,36c.1-.1.1-.2.2-.2A18.1,18.1,0,0,0,26.6,33Z"/><path class="cls-2" d="M20.7,35.2,19.1,34a17.3,17.3,0,0,0-1.5,3.6,8.5,8.5,0,0,0,3.9.8h1.7l.3-.6A19.5,19.5,0,0,0,20.7,35.2Z"/><path class="cls-2" d="M23.2,38.3l.7-.2-.4-.4Z"/><path class="cls-2" d="M15.5,22.2H12.9a10.7,10.7,0,0,0-1.2,4.4H12A19.8,19.8,0,0,1,15.5,22.2Z"/><path class="cls-2" d="M30.6,29.6a13.2,13.2,0,0,0-4,3.4,18.1,18.1,0,0,1,2.3,2.8A11.6,11.6,0,0,0,32,28.9Z"/><path class="cls-2" d="M18,33.4a27.2,27.2,0,0,0-2.8-1.3l-1-.3c-.3.8-.6,1.5-.8,2.2a9.2,9.2,0,0,0,4.2,3.6A17.3,17.3,0,0,1,19.1,34Z"/><path class="cls-2" d="M17.1,27.2h0l-.9-.2a13.9,13.9,0,0,0-4.2-.6l-.4.5v.9a13.4,13.4,0,0,0,.5,3.5l2.1.5A24.6,24.6,0,0,1,17.1,27.2Z"/><path class="cls-2" d="M11.7,26.4a.9.9,0,0,0-.1.5l.4-.5Z"/><path class="cls-2" d="M12.1,31.3A11.3,11.3,0,0,0,13.4,34c.2-.7.5-1.4.8-2.2Z"/></g><path class="cls-2" d="M23.9,17.2h-.2l.6-.8,1-1.3h0a13.7,13.7,0,0,1,3.8-3.1l.6-.2-.6-.4a2.7,2.7,0,0,0-2.2-.2h0l.6-.4-.8-.2c-1.8-.5-3.2.6-4.1,1.3a.5.5,0,0,1-.4.3H22a8.2,8.2,0,0,1,.1-1.4h0A5.9,5.9,0,0,1,24,7.1l.5-.5-.8-.2a3.7,3.7,0,0,0-3.6,2.2h0V8.1a7.8,7.8,0,0,0,.2-1.4A7.9,7.9,0,0,0,19,2.8l-.4-.6-.3.7a6.8,6.8,0,0,0-.4,4,5.8,5.8,0,0,0,.5,1.4c0,.2.1.3.1.4h0c-1.2-1.4-2.6-1.9-4-1.4l-.7.3.6.4a6.6,6.6,0,0,1,1.9,1.8,8.3,8.3,0,0,1,.7,1.3h0a3.3,3.3,0,0,1,.4,1.4h-.2l-.5-.2c-1-.5-2.6-1.3-4.3-.5l-.7.4.6.3h.1a3,3,0,0,0-2.1.6l-.5.5.7.2h.3l1.6.7,1.5.8.9.6h0L16,17.2l.8.7-.6.4a14.2,14.2,0,0,1,4.1.3A22.4,22.4,0,0,1,23.9,17.2Z"/></svg>